#Comment line ignore any data following # character 
#Hierarchical Translation and Rotation (.htr) file 
[Header]	
#Header keywords are followed by a single value 
FileType HTR		#Single word string
DataType HTRS		#Translation followed by rotation and scale data
FileVersion 1		#integer
NumSegments 84		#integer
NumFrames 2		#integer
DataFrameRate 30		#integer, data frame rate in this file
EulerRotationOrder ZYX
CalibrationUnits mm
RotationUnits Degrees
GlobalAxisofGravity Y
BoneLengthAxis Y
ScaleFactor 1.00
[SegmentNames&Hierarchy]
#CHILD	PARENT
MASTER GLOBAL
root MASTER
chest root
L_mid_tent01 root
R_mid_tent01 root
spine01 root
Bip01_Neck chest
L_humerus chest
R_humerus chest
weapon_bone chest
Bip01_Head Bip01_Neck
eye_left_bone Bip01_Head
eye_right_bone Bip01_Head
L_forearm L_humerus
L_front_hand L_forearm
L_weapon_bone L_forearm
L_front_hand01_01 L_front_hand
L_front_hand02_01 L_front_hand
L_front_hand03_01 L_front_hand
L_front_hand01_02 L_front_hand01_01
L_front_hand02_02 L_front_hand02_01
L_front_hand03_02 L_front_hand03_01
R_forearm R_humerus
R_front_hand R_forearm
R_weapon_bone R_forearm
R_front_hand01_01 R_front_hand
R_front_hand02_01 R_front_hand
R_front_hand03_01 R_front_hand
R_front_hand01_02 R_front_hand01_01
R_front_hand02_02 R_front_hand02_01
R_front_hand03_02 R_front_hand03_01
null_rope01_connect L_mid_tent01
Rope1_Seg01 null_rope01_connect
Rope1_Seg02 Rope1_Seg01
Rope1_Seg03 Rope1_Seg02
Rope1_Seg04 Rope1_Seg03
Rope1_Seg05 Rope1_Seg04
Rope1_Seg06 Rope1_Seg05
Rope1_Seg07 Rope1_Seg06
Rope1_Seg09 Rope1_Seg07
L_mid_hand01 Rope1_Seg09
L_mid_hand02 Rope1_Seg09
L_mid_hand03 Rope1_Seg09
null_rope02_connect R_mid_tent01
Rope2_Seg01 null_rope02_connect
Rope2_Seg02 Rope2_Seg01
Rope2_Seg03 Rope2_Seg02
Rope2_Seg04 Rope2_Seg03
Rope2_Seg05 Rope2_Seg04
Rope2_Seg06 Rope2_Seg05
Rope2_Seg07 Rope2_Seg06
Rope2_Seg09 Rope2_Seg07
R_mid_hand01 Rope2_Seg09
R_mid_hand02 Rope2_Seg09
R_mid_hand03 Rope2_Seg09
spine02 spine01
spine03 spine02
pelvis spine03
null_rope03_connect pelvis
null_rope04_connect pelvis
Rope3_Seg01 null_rope03_connect
Rope3_Seg02 Rope3_Seg01
Rope3_Seg03 Rope3_Seg02
Rope3_Seg04 Rope3_Seg03
Rope3_Seg05 Rope3_Seg04
Rope3_Seg06 Rope3_Seg05
Rope3_Seg07 Rope3_Seg06
Rope3_Seg08 Rope3_Seg07
Rope3_Seg09 Rope3_Seg08
R_rear_hand01 Rope3_Seg09
R_rear_hand02 Rope3_Seg09
R_rear_hand03 Rope3_Seg09
Rope4_Seg01 null_rope04_connect
Rope4_Seg02 Rope4_Seg01
Rope4_Seg03 Rope4_Seg02
Rope4_Seg04 Rope4_Seg03
Rope4_Seg05 Rope4_Seg04
Rope4_Seg06 Rope4_Seg05
Rope4_Seg07 Rope4_Seg06
Rope4_Seg08 Rope4_Seg07
Rope4_Seg09 Rope4_Seg08
L_rear_hand01 Rope4_Seg09
L_rear_hand02 Rope4_Seg09
L_rear_hand03 Rope4_Seg09
[BasePosition]
#SegmentName Tx, Ty, Tz, Rx, Ry, Rz, BoneLength
MASTER 0.000000 0.000000 0.000000 -90.000000 0.000000 0.000000 10.000000 
root 0.000000 0.000000 0.000000 0.000000 0.000000 0.000000 10.000000 
chest 0.000000 0.000000 0.000000 0.000000 0.000000 0.000000 10.000000 
L_mid_tent01 0.000000 0.000000 0.000000 0.000000 0.000000 0.000000 10.000000 
R_mid_tent01 0.000000 0.000000 0.000000 0.000000 0.000000 0.000000 10.000000 
spine01 0.000000 0.000000 0.000000 0.000000 0.000000 0.000000 10.000000 
Bip01_Neck 0.000000 0.000000 0.000000 0.000000 0.000000 0.000000 10.000000 
L_humerus 0.000000 0.000000 0.000000 0.000000 0.000000 0.000000 10.000000 
R_humerus 0.000000 0.000000 0.000000 0.000000 0.000000 0.000000 10.000000 
weapon_bone 0.000000 0.000000 0.000000 0.000000 0.000000 0.000000 10.000000 
Bip01_Head 0.000000 0.000000 0.000000 0.000000 0.000000 0.000000 10.000000 
eye_left_bone 0.000000 0.000000 0.000000 0.000000 0.000000 0.000000 10.000000 
eye_right_bone 0.000000 0.000000 0.000000 0.000000 0.000000 0.000000 10.000000 
L_forearm 0.000000 0.000000 0.000000 0.000000 0.000000 0.000000 10.000000 
L_front_hand 0.000000 0.000000 0.000000 0.000000 0.000000 0.000000 10.000000 
L_weapon_bone 0.000000 0.000000 0.000000 0.000000 0.000000 0.000000 10.000000 
L_front_hand01_01 0.000000 0.000000 0.000000 0.000000 0.000000 0.000000 10.000000 
L_front_hand02_01 0.000000 0.000000 0.000000 0.000000 0.000000 0.000000 10.000000 
L_front_hand03_01 0.000000 0.000000 0.000000 0.000000 0.000000 0.000000 10.000000 
L_front_hand01_02 0.000000 0.000000 0.000000 0.000000 0.000000 0.000000 10.000000 
L_front_hand02_02 0.000000 0.000000 0.000000 0.000000 0.000000 0.000000 10.000000 
L_front_hand03_02 0.000000 0.000000 0.000000 0.000000 0.000000 0.000000 10.000000 
R_forearm 0.000000 0.000000 0.000000 0.000000 0.000000 0.000000 10.000000 
R_front_hand 0.000000 0.000000 0.000000 0.000000 0.000000 0.000000 10.000000 
R_weapon_bone 0.000000 0.000000 0.000000 0.000000 0.000000 0.000000 10.000000 
R_front_hand01_01 0.000000 0.000000 0.000000 0.000000 0.000000 0.000000 10.000000 
R_front_hand02_01 0.000000 0.000000 0.000000 0.000000 0.000000 0.000000 10.000000 
R_front_hand03_01 0.000000 0.000000 0.000000 0.000000 0.000000 0.000000 10.000000 
R_front_hand01_02 0.000000 0.000000 0.000000 0.000000 0.000000 0.000000 10.000000 
R_front_hand02_02 0.000000 0.000000 0.000000 0.000000 0.000000 0.000000 10.000000 
R_front_hand03_02 0.000000 0.000000 0.000000 0.000000 0.000000 0.000000 10.000000 
null_rope01_connect 0.000000 0.000000 0.000000 0.000000 0.000000 0.000000 10.000000 
Rope1_Seg01 0.000000 0.000000 0.000000 0.000000 0.000000 0.000000 10.000000 
Rope1_Seg02 0.000000 0.000000 0.000000 0.000000 0.000000 0.000000 10.000000 
Rope1_Seg03 0.000000 0.000000 0.000000 0.000000 0.000000 0.000000 10.000000 
Rope1_Seg04 0.000000 0.000000 0.000000 0.000000 0.000000 0.000000 10.000000 
Rope1_Seg05 0.000000 0.000000 0.000000 0.000000 0.000000 0.000000 10.000000 
Rope1_Seg06 0.000000 0.000000 0.000000 0.000000 0.000000 0.000000 10.000000 
Rope1_Seg07 0.000000 0.000000 0.000000 0.000000 0.000000 0.000000 10.000000 
Rope1_Seg09 0.000000 0.000000 0.000000 0.000000 0.000000 0.000000 10.000000 
L_mid_hand01 0.000000 0.000000 0.000000 0.000000 0.000000 0.000000 10.000000 
L_mid_hand02 0.000000 0.000000 0.000000 0.000000 0.000000 0.000000 10.000000 
L_mid_hand03 0.000000 0.000000 0.000000 0.000000 0.000000 0.000000 10.000000 
null_rope02_connect 0.000000 0.000000 0.000000 0.000000 0.000000 0.000000 10.000000 
Rope2_Seg01 0.000000 0.000000 0.000000 0.000000 0.000000 0.000000 10.000000 
Rope2_Seg02 0.000000 0.000000 0.000000 0.000000 0.000000 0.000000 10.000000 
Rope2_Seg03 0.000000 0.000000 0.000000 0.000000 0.000000 0.000000 10.000000 
Rope2_Seg04 0.000000 0.000000 0.000000 0.000000 0.000000 0.000000 10.000000 
Rope2_Seg05 0.000000 0.000000 0.000000 0.000000 0.000000 0.000000 10.000000 
Rope2_Seg06 0.000000 0.000000 0.000000 0.000000 0.000000 0.000000 10.000000 
Rope2_Seg07 0.000000 0.000000 0.000000 0.000000 0.000000 0.000000 10.000000 
Rope2_Seg09 0.000000 0.000000 0.000000 0.000000 0.000000 0.000000 10.000000 
R_mid_hand01 0.000000 0.000000 0.000000 0.000000 0.000000 0.000000 10.000000 
R_mid_hand02 0.000000 0.000000 0.000000 0.000000 0.000000 0.000000 10.000000 
R_mid_hand03 0.000000 0.000000 0.000000 0.000000 0.000000 0.000000 10.000000 
spine02 0.000000 0.000000 0.000000 0.000000 0.000000 0.000000 10.000000 
spine03 0.000000 0.000000 0.000000 0.000000 0.000000 0.000000 10.000000 
pelvis 0.000000 0.000000 0.000000 0.000000 0.000000 0.000000 10.000000 
null_rope03_connect 0.000000 0.000000 0.000000 0.000000 0.000000 0.000000 10.000000 
null_rope04_connect 0.000000 0.000000 0.000000 0.000000 0.000000 0.000000 10.000000 
Rope3_Seg01 0.000000 0.000000 0.000000 0.000000 0.000000 0.000000 10.000000 
Rope3_Seg02 0.000000 0.000000 0.000000 0.000000 0.000000 0.000000 10.000000 
Rope3_Seg03 0.000000 0.000000 0.000000 0.000000 0.000000 0.000000 10.000000 
Rope3_Seg04 0.000000 0.000000 0.000000 0.000000 0.000000 0.000000 10.000000 
Rope3_Seg05 0.000000 0.000000 0.000000 0.000000 0.000000 0.000000 10.000000 
Rope3_Seg06 0.000000 0.000000 0.000000 0.000000 0.000000 0.000000 10.000000 
Rope3_Seg07 0.000000 0.000000 0.000000 0.000000 0.000000 0.000000 10.000000 
Rope3_Seg08 0.000000 0.000000 0.000000 0.000000 0.000000 0.000000 10.000000 
Rope3_Seg09 0.000000 0.000000 0.000000 0.000000 0.000000 0.000000 10.000000 
R_rear_hand01 0.000000 0.000000 0.000000 0.000000 0.000000 0.000000 10.000000 
R_rear_hand02 0.000000 0.000000 0.000000 0.000000 0.000000 0.000000 10.000000 
R_rear_hand03 0.000000 0.000000 0.000000 0.000000 0.000000 0.000000 10.000000 
Rope4_Seg01 0.000000 0.000000 0.000000 0.000000 0.000000 0.000000 10.000000 
Rope4_Seg02 0.000000 0.000000 0.000000 0.000000 0.000000 0.000000 10.000000 
Rope4_Seg03 0.000000 0.000000 0.000000 0.000000 0.000000 0.000000 10.000000 
Rope4_Seg04 0.000000 0.000000 0.000000 0.000000 0.000000 0.000000 10.000000 
Rope4_Seg05 0.000000 0.000000 0.000000 0.000000 0.000000 0.000000 10.000000 
Rope4_Seg06 0.000000 0.000000 0.000000 0.000000 0.000000 0.000000 10.000000 
Rope4_Seg07 0.000000 0.000000 0.000000 0.000000 0.000000 0.000000 10.000000 
Rope4_Seg08 0.000000 0.000000 0.000000 0.000000 0.000000 0.000000 10.000000 
Rope4_Seg09 0.000000 0.000000 0.000000 0.000000 0.000000 0.000000 10.000000 
L_rear_hand01 0.000000 0.000000 0.000000 0.000000 0.000000 0.000000 10.000000 
L_rear_hand02 0.000000 0.000000 0.000000 0.000000 0.000000 0.000000 10.000000 
L_rear_hand03 0.000000 0.000000 0.000000 0.000000 0.000000 0.000000 10.000000 
#Beginning of Data. Separated by tabs
#Fr	Tx	Ty	Tz	Rx	Ry	Rz	SF
[MASTER]
4 -65.025734 -666.430298 882.774170 0.000000 -0.002347 -89.999992 1107.992798
5 -78.144638 -876.782043 1121.377563 0.000000 -0.002347 -90.000000 1425.601929
[root]
4 -79.442757 2.622555 1433.430664 -85.362343 -23.553291 175.206528 1435.632813
5 -85.575485 -6.805161 1368.858521 -81.840683 -19.840143 173.390656 1371.547852
[chest]
4 -84.512650 -34.090519 0.000000 -3.744481 -7.203998 -176.651779 91.129311
5 -84.512650 -34.090519 0.000000 -2.754866 -9.959665 -173.650696 91.129311
[L_mid_tent01]
4 27.299566 22.177521 -249.918259 0.688134 4.196850 71.327690 252.381149
5 27.299582 22.177523 -249.918259 0.144508 8.492355 70.418304 252.381149
[R_mid_tent01]
4 23.228794 24.509907 226.238495 168.732742 -18.961878 71.743973 228.744751
5 23.228794 24.509907 226.238495 169.383728 -20.768610 68.996536 228.744751
[spine01]
4 -0.361383 -0.195265 0.000000 0.001825 0.001478 11.975696 0.410763
5 -0.361383 -0.195265 0.000000 0.001818 0.001488 11.415699 0.410763
[Bip01_Neck]
4 165.484543 71.581718 0.000119 176.643677 -1.657966 43.431908 180.302734
5 165.484543 71.581718 0.000119 176.643677 -1.657967 43.431911 180.302734
[L_humerus]
4 -13.983130 -135.272980 -120.471481 149.911530 74.265991 -118.731995 181.680161
5 -13.983130 -135.272980 -120.471481 145.147461 76.228561 -123.660042 181.680161
[R_humerus]
4 -13.983309 -135.273102 125.287651 -171.431503 -69.572037 -93.580704 184.909012
5 -13.983309 -135.273102 125.287651 -170.818283 -70.968880 -94.226471 184.909012
[weapon_bone]
4 235.964890 -300.705902 0.000000 0.000000 -89.951546 -128.212341 382.234833
5 235.964890 -300.705902 0.000000 0.000000 -89.951546 -128.212341 382.234833
[Bip01_Head]
4 213.432968 185.747040 11.366800 9.851604 5.248482 -43.853466 283.169189
5 213.470703 185.642517 12.720118 11.457410 4.547332 -43.860878 283.186676
[eye_left_bone]
4 -24.626970 125.451866 -64.772606 0.000000 -90.000000 -99.840431 143.318359
5 -24.626970 125.451866 -64.772606 0.000000 -90.000000 -99.840431 143.318359
[eye_right_bone]
4 -24.626970 125.451866 64.327362 0.000000 -89.965736 80.156380 143.117676
5 -24.626970 125.451866 64.327362 0.000000 -89.965736 80.156380 143.117676
[L_forearm]
4 322.776093 0.000000 -0.000119 0.000119 -0.002344 -95.807457 322.776093
5 322.776093 0.000000 -0.000119 0.000119 -0.002344 -95.807457 322.776093
[L_front_hand]
4 241.149185 -0.042021 -3.300071 -178.667953 -1.835447 -27.422350 241.171753
5 241.149185 -0.042021 -3.300071 -178.667953 -1.835447 -27.422350 241.171753
[L_weapon_bone]
4 156.183838 0.000000 0.000000 0.000014 0.000007 0.000001 156.183838
5 156.183838 0.000000 0.000000 0.000014 0.000007 0.000001 156.183838
[L_front_hand01_01]
4 86.095154 20.947098 -0.655860 -0.364720 -0.478588 74.936234 88.609184
5 86.095154 20.947098 -0.655860 -0.351864 -0.488251 73.756912 88.609184
[L_front_hand02_01]
4 86.935165 -11.437475 24.513514 153.708527 -59.690228 -60.568150 91.046425
5 86.935165 -11.437475 24.513514 151.937775 -59.151119 -58.507736 91.046425
[L_front_hand03_01]
4 86.637497 -14.123976 -20.424902 -153.279221 57.922546 -61.955151 90.126129
5 86.637497 -14.123976 -20.424902 -151.626480 57.374607 -59.999687 90.126129
[L_front_hand01_02]
4 71.020905 -0.000179 0.000030 0.000318 -0.002326 -105.568283 71.020905
5 71.020905 -0.000179 0.000030 0.000317 -0.002326 -105.531021 71.020905
[L_front_hand02_02]
4 71.020927 -0.000119 0.000060 0.000318 -0.002326 -105.568283 71.020927
5 71.020927 -0.000119 0.000060 0.000317 -0.002326 -105.531021 71.020927
[L_front_hand03_02]
4 71.020905 -0.000060 0.000060 0.000318 -0.002326 -105.568283 71.020905
5 71.020905 -0.000060 0.000060 0.000317 -0.002326 -105.531021 71.020905
[R_forearm]
4 322.776428 -0.000060 0.000030 0.209504 0.012586 -94.339050 322.776428
5 322.776428 -0.000060 0.000030 0.209504 0.012586 -94.339050 322.776428
[R_front_hand]
4 238.847015 -0.006795 2.210259 -2.635298 -10.645460 -26.312500 238.857239
5 238.847015 -0.006795 2.210259 -2.635298 -10.645461 -26.312506 238.857239
[R_weapon_bone]
4 155.664093 0.002503 -0.000030 0.003487 0.001180 -90.988930 155.664078
5 155.664093 0.002503 -0.000030 0.003487 0.001180 -90.988930 155.664078
[R_front_hand01_01]
4 87.624611 14.231146 22.918642 -153.951385 -59.756744 60.953659 91.683487
5 87.624611 14.231146 22.918642 -152.176025 -59.222912 58.891888 91.683487
[R_front_hand02_01]
4 89.356956 14.367283 -19.491137 153.963715 58.112637 62.995499 92.579636
5 89.356956 14.367283 -19.491137 152.293427 57.581059 61.021759 92.579636
[R_front_hand03_01]
4 87.286232 -22.307278 -0.143439 0.156617 -0.426811 -75.329910 90.091743
5 87.286232 -22.307278 -0.143439 0.152228 -0.428396 -74.153709 90.091743
[R_front_hand01_02]
4 71.020905 0.000060 0.000119 0.002323 -0.000334 106.381714 71.020905
5 71.020905 0.000060 0.000119 0.002323 -0.000334 106.381714 71.020905
[R_front_hand02_02]
4 71.020844 -0.000030 -0.000119 0.002323 -0.000334 106.381714 71.020836
5 71.020844 -0.000030 -0.000119 0.002323 -0.000334 106.381714 71.020836
[R_front_hand03_02]
4 71.020905 0.000000 0.000030 0.002323 -0.000334 106.381714 71.020905
5 71.020905 0.000000 0.000030 0.002323 -0.000334 106.381714 71.020905
[null_rope01_connect]
4 328.732483 0.000000 -0.000238 75.596840 83.527885 -62.164188 328.732483
5 328.732483 0.000000 -0.000238 82.727768 80.583885 -57.979351 328.732483
[Rope1_Seg01]
4 0.000020 0.000067 0.000000 -162.352402 63.143501 38.276730 0.000070
5 0.000020 0.000089 0.000000 -161.929214 73.296577 34.616024 0.000091
[Rope1_Seg02]
4 139.999863 -0.000179 0.000000 -1.940704 -7.438113 10.705853 139.999863
5 139.999863 -0.000179 0.000000 -1.964167 -6.623341 10.808193 139.999863
[Rope1_Seg03]
4 139.999924 0.000060 -0.000060 -2.156045 -10.504695 14.623584 139.999924
5 139.999924 0.000060 -0.000060 -1.936830 -8.824697 14.041460 139.999924
[Rope1_Seg04]
4 139.999924 -0.000060 -0.000119 -2.008380 -12.096367 16.625462 139.999924
5 139.999924 -0.000060 -0.000119 -1.403194 -9.482351 15.870684 139.999924
[Rope1_Seg05]
4 139.999832 0.000119 -0.000060 -0.674169 -8.512322 10.989147 139.999832
5 139.999832 0.000119 -0.000060 -0.613112 -8.173025 9.765597 139.999832
[Rope1_Seg06]
4 139.999954 0.000119 -0.000060 -0.113182 -4.390669 5.318524 139.999954
5 139.999954 0.000119 -0.000060 -0.780813 -5.475050 4.238767 139.999954
[Rope1_Seg07]
4 139.999985 0.000060 0.000000 0.033320 -3.053004 3.825852 139.999985
5 139.999985 0.000060 0.000000 -0.317317 -3.546970 3.426167 139.999985
[Rope1_Seg09]
4 121.602913 0.000119 -0.000089 -89.793175 -1.359789 0.847147 121.602913
5 121.602913 0.000119 -0.000089 -89.793175 -1.359789 0.847147 121.602913
[L_mid_hand01]
4 103.859421 1.038730 8.195221 122.214600 -62.281212 -29.682934 104.187431
5 103.859421 1.038730 8.195221 118.511871 -58.710987 -25.432119 104.187431
[L_mid_hand02]
4 105.572853 -4.139662 -10.864139 -163.055786 41.815430 -64.846169 106.211075
5 105.572853 -4.139662 -10.864139 -159.626373 40.490181 -59.638344 106.211075
[L_mid_hand03]
4 104.641464 17.579376 -3.913581 -8.059162 17.002192 68.062859 106.179977
5 104.641464 17.579376 -3.913581 -9.285491 16.381809 63.801434 106.179977
[null_rope02_connect]
4 328.732849 0.000179 -0.000119 119.428101 -69.094734 -164.252060 328.732849
5 328.732849 0.000179 -0.000119 130.568665 -66.119522 -175.558884 328.732849
[Rope2_Seg01]
4 -0.000074 -0.000180 0.000000 -154.231964 43.563152 138.108337 0.000195
5 -0.000074 -0.000177 0.000000 -92.142235 24.247444 148.183044 0.000192
[Rope2_Seg02]
4 139.999741 -0.000060 -0.000119 12.512967 -10.590523 -3.701011 139.999756
5 139.999741 -0.000060 -0.000119 -15.190862 -10.255234 12.017517 139.999756
[Rope2_Seg03]
4 140.000107 0.000030 0.000000 12.739181 -9.860976 -6.573008 140.000107
5 140.000107 0.000030 0.000000 -0.225855 -11.911237 5.183495 140.000107
[Rope2_Seg04]
4 139.999802 0.000000 -0.000060 2.291003 -16.985048 3.666571 139.999802
5 139.999802 0.000000 -0.000060 -3.819414 -12.152822 9.340070 139.999802
[Rope2_Seg05]
4 139.999985 -0.000060 0.000119 -9.950406 -21.741261 29.142904 139.999985
5 139.999985 -0.000060 0.000119 -9.474217 -17.886415 25.111481 139.999985
[Rope2_Seg06]
4 139.999893 -0.000030 -0.000119 -0.184678 -8.588254 8.757900 139.999893
5 139.999893 -0.000030 -0.000119 -1.215560 -10.588758 11.747496 139.999893
[Rope2_Seg07]
4 139.999893 0.000060 -0.000060 0.290499 -3.867805 3.614772 139.999893
5 139.999893 0.000060 -0.000060 0.173950 -4.793954 4.876581 139.999893
[Rope2_Seg09]
4 121.338966 0.000089 -0.000060 33.793236 -1.359788 -0.847141 121.338966
5 121.338966 0.000089 -0.000060 33.793236 -1.359788 -0.847141 121.338966
[R_mid_hand01]
4 104.680779 11.144459 -10.335981 -19.035433 44.336296 66.455574 105.778534
5 104.680779 11.144459 -10.335981 -20.898426 43.633060 63.773407 105.778534
[R_mid_hand02]
4 104.070427 2.443552 8.231699 53.394081 -65.425781 34.575890 104.424065
5 104.070427 2.443552 8.231699 55.882156 -63.749565 31.819658 104.424065
[R_mid_hand03]
4 106.028137 -11.221827 -5.996406 -176.276184 15.379536 -73.491829 106.788818
5 106.028137 -11.221827 -5.996406 -175.717163 15.237030 -71.372292 106.788818
[spine02]
4 129.756927 0.001550 0.000119 -1.023900 -3.926965 6.770993 129.756927
5 129.756927 0.001550 0.000119 -1.023900 -3.926965 6.770993 129.756927
[spine03]
4 78.613861 0.087341 -4.898870 1.040681 4.146420 4.212376 78.766396
5 78.613876 0.087347 -4.898870 1.040681 4.146420 4.212376 78.766411
[pelvis]
4 169.435242 0.051022 0.000000 0.774445 -0.188964 -10.717953 169.435257
5 169.435242 0.051022 0.000000 1.286269 -0.190622 -10.719244 169.435257
[null_rope03_connect]
4 -1.257226 -2.466202 137.391083 31.586090 84.476173 -46.823467 137.418976
5 -1.257226 -2.466202 137.391083 23.224548 80.600922 -58.047359 137.418976
[null_rope04_connect]
4 -1.259640 -2.480268 -137.844437 31.586090 84.476173 -46.823467 137.872513
5 -1.259640 -2.480268 -137.844437 23.224548 80.600922 -58.047359 137.872513
[Rope3_Seg01]
4 0.000020 0.000067 0.000000 -137.294617 -31.352276 111.380592 0.000070
5 0.000020 0.000089 0.000000 -135.511734 -29.507811 108.571671 0.000091
[Rope3_Seg02]
4 139.999924 -0.000119 0.000060 -9.722105 -6.537700 -37.188599 139.999924
5 139.999924 -0.000119 0.000060 -3.746376 -11.398257 -36.604622 139.999924
[Rope3_Seg03]
4 139.999924 -0.000119 0.000119 -27.408676 2.191148 -21.970430 139.999924
5 139.999924 -0.000119 0.000119 -16.303783 -3.036894 -19.195826 139.999924
[Rope3_Seg04]
4 139.999924 0.000119 0.000000 -74.775070 11.984297 -31.222729 139.999924
5 139.999924 0.000119 0.000000 -72.132568 1.532469 -24.246208 139.999924
[Rope3_Seg05]
4 139.999924 -0.000238 0.000060 -26.596371 34.144447 1.216330 139.999924
5 139.999924 -0.000238 0.000060 -53.402039 33.160751 -10.419034 139.999924
[Rope3_Seg06]
4 139.999893 -0.000119 -0.000060 -1.840937 8.760508 5.046460 139.999893
5 139.999893 -0.000119 -0.000060 -2.973766 11.287978 8.047205 139.999893
[Rope3_Seg07]
4 139.999771 0.000060 -0.000119 -0.331308 4.433563 2.780583 139.999771
5 139.999771 0.000060 -0.000119 -0.497351 5.034208 4.084645 139.999771
[Rope3_Seg08]
4 139.999985 -0.000060 0.000000 0.152158 2.388794 1.523533 139.999985
5 139.999985 -0.000060 0.000000 0.092692 2.666337 2.210327 139.999985
[Rope3_Seg09]
4 90.185997 -0.000179 -0.000060 89.793228 -1.359877 -0.847183 90.185997
5 90.185997 -0.000179 -0.000060 89.793228 -1.359877 -0.847183 90.185997
[R_rear_hand01]
4 103.366196 -6.073594 -10.757982 -176.027405 24.361639 -69.845337 104.101845
5 103.366196 -6.073594 -10.757982 -174.893967 24.166164 -67.090828 104.101845
[R_rear_hand02]
4 100.509819 12.039542 -7.992327 -15.526569 35.959644 67.697304 101.543350
5 100.509819 12.039542 -7.992327 -17.255272 35.248016 64.724976 101.543350
[R_rear_hand03]
4 101.539970 5.215704 5.435467 74.484840 -68.272476 18.324221 101.819031
5 101.539970 5.215704 5.435467 75.989647 -65.836792 16.686356 101.819031
[Rope4_Seg01]
4 0.000001 0.000103 -0.000153 56.554714 -19.397673 53.092602 0.000184
5 0.000001 0.000124 -0.000153 53.433483 -12.934498 52.024399 0.000197
[Rope4_Seg02]
4 139.999985 0.000060 0.000119 6.634265 -25.657080 -7.767687 139.999985
5 139.999985 0.000060 0.000119 -0.982462 -17.432100 -11.913755 139.999985
[Rope4_Seg03]
4 139.999924 0.000000 -0.000238 38.821083 -26.649378 -2.344070 139.999924
5 139.999924 0.000000 -0.000238 -8.116675 -20.755741 -14.330280 139.999924
[Rope4_Seg04]
4 139.999985 0.000000 0.000119 107.554314 -31.737574 13.856591 139.999985
5 139.999985 0.000000 0.000119 -119.958870 -16.763767 -19.638083 139.999985
[Rope4_Seg05]
4 139.999802 -0.000060 -0.000119 20.403074 22.248171 31.625357 139.999802
5 139.999802 -0.000060 -0.000119 -21.556425 38.821011 -2.665284 139.999802
[Rope4_Seg06]
4 139.999924 0.000000 0.000060 1.516929 8.939883 6.662677 139.999924
5 139.999924 0.000000 0.000060 -0.483484 15.574148 4.888925 139.999924
[Rope4_Seg07]
4 139.999802 0.000000 0.000000 0.510980 4.461350 3.159927 139.999802
5 139.999802 0.000000 0.000000 -0.053490 6.540495 2.069391 139.999802
[Rope4_Seg08]
4 139.999924 0.000000 0.000119 -1.324766 2.365577 1.651421 139.999924
5 139.999924 0.000000 0.000119 -1.530660 3.350263 1.070268 139.999924
[Rope4_Seg09]
4 90.185791 0.000060 0.000060 -135.617828 2.228885 0.850567 90.185791
5 90.185791 0.000060 0.000060 -135.617828 2.228885 0.850567 90.185791
[L_rear_hand01]
4 101.696655 -8.392275 -7.654577 -21.754835 -32.891220 123.292336 102.329041
5 101.696655 -8.392275 -7.654577 -25.776871 -29.993465 130.987762 102.329041
[L_rear_hand02]
4 102.726799 -1.568258 5.773216 78.924995 58.957420 166.614075 102.900848
5 102.726799 -1.568258 5.773216 80.757904 51.892082 168.841858 102.900848
[L_rear_hand03]
4 104.552910 9.721220 -10.420293 -171.809464 -23.347528 -120.557564 105.519653
5 104.552910 9.721220 -10.420293 -168.841812 -22.136347 -128.226929 105.519653
